<mxfile modified="2023-06-21T11:08:42.704Z" host="Electron" agent="Mozilla/5.0 (Windows NT 10.0; Win64; x64) AppleWebKit/537.36 (KHTML, like Gecko) draw.io/21.5.0 Chrome/112.0.5615.204 Electron/24.5.1 Safari/537.36" etag="tSqVdmYXfeLQjKBcLqnJ" version="21.5.0" type="device" pages="2">
  <diagram id="O9lSWGamnLPQxXDeFuVm" name="Page-1">
    <mxGraphModel dx="1430" dy="1330" grid="1" gridSize="10" guides="1" tooltips="1" connect="1" arrows="1" fold="1" page="1" pageScale="1" pageWidth="827" pageHeight="500" math="0" shadow="0">
      <root>
        <mxCell id="0" />
        <mxCell id="1" parent="0" />
        <mxCell id="poHSqKZHRjuxS-_Pqw1f-6" style="edgeStyle=orthogonalEdgeStyle;rounded=0;orthogonalLoop=1;jettySize=auto;html=1;entryX=0.5;entryY=0;entryDx=0;entryDy=0;" edge="1" parent="1" source="7Qnf5n3l6z1zfRLXETIu-3" target="7Qnf5n3l6z1zfRLXETIu-12">
          <mxGeometry relative="1" as="geometry" />
        </mxCell>
        <mxCell id="7Qnf5n3l6z1zfRLXETIu-3" value="Business Logic Layer" style="rounded=0;whiteSpace=wrap;html=1;horizontal=1;verticalAlign=top;" parent="1" vertex="1">
          <mxGeometry x="410" y="-160" width="660" height="140" as="geometry" />
        </mxCell>
        <mxCell id="poHSqKZHRjuxS-_Pqw1f-4" style="rounded=0;orthogonalLoop=1;jettySize=auto;html=1;entryX=0.417;entryY=0.003;entryDx=0;entryDy=0;entryPerimeter=0;" edge="1" parent="1">
          <mxGeometry relative="1" as="geometry">
            <mxPoint x="740.0020270270271" y="-240" as="sourcePoint" />
            <mxPoint x="740.07" y="-219.88" as="targetPoint" />
          </mxGeometry>
        </mxCell>
        <mxCell id="L41VFhDGmCCZCXTKlCgy-1" value="UI Layer" style="rounded=0;whiteSpace=wrap;html=1;horizontal=1;verticalAlign=top;" parent="1" vertex="1">
          <mxGeometry x="410" y="-330" width="550" height="90" as="geometry" />
        </mxCell>
        <mxCell id="L41VFhDGmCCZCXTKlCgy-3" value="Quantum Service &lt;br&gt;Store Management" style="rounded=0;whiteSpace=wrap;html=1;horizontal=1;verticalAlign=middle;fillColor=#dae8fc;strokeColor=#6c8ebf;" parent="1" vertex="1">
          <mxGeometry x="598" y="-300" width="100" height="50" as="geometry" />
        </mxCell>
        <mxCell id="poHSqKZHRjuxS-_Pqw1f-5" style="edgeStyle=orthogonalEdgeStyle;rounded=0;orthogonalLoop=1;jettySize=auto;html=1;entryX=0.5;entryY=0;entryDx=0;entryDy=0;" edge="1" parent="1" source="L41VFhDGmCCZCXTKlCgy-6" target="7Qnf5n3l6z1zfRLXETIu-3">
          <mxGeometry relative="1" as="geometry" />
        </mxCell>
        <mxCell id="L41VFhDGmCCZCXTKlCgy-6" value="API Management Layer" style="rounded=0;whiteSpace=wrap;html=1;horizontal=1;verticalAlign=middle;" parent="1" vertex="1">
          <mxGeometry x="410" y="-220" width="660" height="40" as="geometry" />
        </mxCell>
        <mxCell id="L41VFhDGmCCZCXTKlCgy-23" value="" style="shape=hexagon;perimeter=hexagonPerimeter2;whiteSpace=wrap;html=1;fixedSize=1;fillColor=#f5f5f5;fontColor=#333333;strokeColor=#666666;" parent="1" vertex="1">
          <mxGeometry x="970" y="-310.09999999999997" width="90" height="60" as="geometry" />
        </mxCell>
        <mxCell id="L41VFhDGmCCZCXTKlCgy-37" style="rounded=0;orthogonalLoop=1;jettySize=auto;html=1;entryX=0.944;entryY=-0.031;entryDx=0;entryDy=0;entryPerimeter=0;" parent="1" source="L41VFhDGmCCZCXTKlCgy-24" edge="1">
          <mxGeometry relative="1" as="geometry">
            <mxPoint x="1026.88" y="-220" as="targetPoint" />
          </mxGeometry>
        </mxCell>
        <mxCell id="L41VFhDGmCCZCXTKlCgy-24" value="Client &lt;br&gt;Applications" style="shape=hexagon;perimeter=hexagonPerimeter2;whiteSpace=wrap;html=1;fixedSize=1;fillColor=#f5f5f5;fontColor=#333333;strokeColor=#666666;" parent="1" vertex="1">
          <mxGeometry x="980" y="-311.43" width="90" height="62.67" as="geometry" />
        </mxCell>
        <mxCell id="L41VFhDGmCCZCXTKlCgy-27" value="API &lt;br&gt;Management" style="rounded=0;whiteSpace=wrap;html=1;horizontal=1;verticalAlign=middle;fillColor=#dae8fc;strokeColor=#6c8ebf;" parent="1" vertex="1">
          <mxGeometry x="870" y="-300" width="80" height="50" as="geometry" />
        </mxCell>
        <mxCell id="L41VFhDGmCCZCXTKlCgy-28" value="Deployment Modeling Tool" style="rounded=0;whiteSpace=wrap;html=1;horizontal=1;verticalAlign=middle;fillColor=#dae8fc;strokeColor=#6c8ebf;" parent="1" vertex="1">
          <mxGeometry x="702" y="-300" width="79" height="50" as="geometry" />
        </mxCell>
        <mxCell id="L41VFhDGmCCZCXTKlCgy-29" value="Quantum Workflow Modeling Tool" style="rounded=0;whiteSpace=wrap;html=1;horizontal=1;verticalAlign=middle;fillColor=#dae8fc;strokeColor=#6c8ebf;" parent="1" vertex="1">
          <mxGeometry x="420" y="-300" width="90" height="50" as="geometry" />
        </mxCell>
        <mxCell id="L41VFhDGmCCZCXTKlCgy-38" value="Deployment Modeling Backend" style="rounded=0;whiteSpace=wrap;html=1;horizontal=1;verticalAlign=middle;fillColor=#dae8fc;strokeColor=#6c8ebf;" parent="1" vertex="1">
          <mxGeometry x="755" y="-128" width="140" height="39" as="geometry" />
        </mxCell>
        <mxCell id="L41VFhDGmCCZCXTKlCgy-39" value="Workflow Modeling Backend" style="rounded=0;whiteSpace=wrap;html=1;horizontal=1;verticalAlign=middle;fillColor=#dae8fc;strokeColor=#6c8ebf;" parent="1" vertex="1">
          <mxGeometry x="422" y="-129" width="168" height="39" as="geometry" />
        </mxCell>
        <mxCell id="L41VFhDGmCCZCXTKlCgy-40" value="Quantum Service Store Backend" style="rounded=0;whiteSpace=wrap;html=1;horizontal=1;verticalAlign=middle;fillColor=#dae8fc;strokeColor=#6c8ebf;" parent="1" vertex="1">
          <mxGeometry x="598" y="-128" width="147" height="38" as="geometry" />
        </mxCell>
        <mxCell id="7Qnf5n3l6z1zfRLXETIu-5" value="Deployment Engine Management" style="rounded=0;whiteSpace=wrap;html=1;horizontal=1;verticalAlign=middle;fillColor=#dae8fc;strokeColor=#6c8ebf;" parent="1" vertex="1">
          <mxGeometry x="785" y="-300" width="80" height="50" as="geometry" />
        </mxCell>
        <mxCell id="7Qnf5n3l6z1zfRLXETIu-6" value="Workflow Engine Management" style="rounded=0;whiteSpace=wrap;html=1;horizontal=1;verticalAlign=middle;fillColor=#dae8fc;strokeColor=#6c8ebf;" parent="1" vertex="1">
          <mxGeometry x="514" y="-300" width="80" height="50" as="geometry" />
        </mxCell>
        <mxCell id="7Qnf5n3l6z1zfRLXETIu-12" value="Data Access Layer" style="rounded=0;whiteSpace=wrap;html=1;horizontal=1;verticalAlign=middle;" parent="1" vertex="1">
          <mxGeometry x="410" width="660" height="40" as="geometry" />
        </mxCell>
        <mxCell id="7Qnf5n3l6z1zfRLXETIu-14" value="Workflow Engine" style="rounded=0;whiteSpace=wrap;html=1;horizontal=1;verticalAlign=middle;fillColor=#dae8fc;strokeColor=#6c8ebf;" parent="1" vertex="1">
          <mxGeometry x="422" y="-79" width="168" height="39" as="geometry" />
        </mxCell>
        <mxCell id="7Qnf5n3l6z1zfRLXETIu-15" value="Deployment Engine" style="rounded=0;whiteSpace=wrap;html=1;horizontal=1;verticalAlign=middle;fillColor=#dae8fc;strokeColor=#6c8ebf;" parent="1" vertex="1">
          <mxGeometry x="755" y="-78" width="140" height="39" as="geometry" />
        </mxCell>
        <mxCell id="7Qnf5n3l6z1zfRLXETIu-16" value="Quantum Provenance Backend" style="rounded=0;whiteSpace=wrap;html=1;horizontal=1;verticalAlign=middle;fillColor=#dae8fc;strokeColor=#6c8ebf;" parent="1" vertex="1">
          <mxGeometry x="598" y="-79" width="147" height="39" as="geometry" />
        </mxCell>
        <mxCell id="4sx6kofYm7ycBkXYHfvP-7" value="&lt;font style=&quot;font-size: 14px&quot;&gt;&amp;nbsp; &amp;nbsp; Key&lt;/font&gt;" style="shape=note;whiteSpace=wrap;html=1;size=14;verticalAlign=top;align=left;spacingTop=-6;" parent="1" vertex="1">
          <mxGeometry x="490" y="60" width="510" height="70" as="geometry" />
        </mxCell>
        <mxCell id="L41VFhDGmCCZCXTKlCgy-20" value="" style="group" parent="1" vertex="1" connectable="0">
          <mxGeometry x="854" y="80" width="160.29" height="30" as="geometry" />
        </mxCell>
        <mxCell id="L41VFhDGmCCZCXTKlCgy-10" value="Allowed to use" style="text;html=1;strokeColor=none;fillColor=none;align=left;verticalAlign=middle;whiteSpace=wrap;rounded=0;" parent="L41VFhDGmCCZCXTKlCgy-20" vertex="1">
          <mxGeometry x="60.050000000000004" width="52.75" height="30" as="geometry" />
        </mxCell>
        <mxCell id="L41VFhDGmCCZCXTKlCgy-11" style="edgeStyle=orthogonalEdgeStyle;rounded=0;orthogonalLoop=1;jettySize=auto;html=1;" parent="L41VFhDGmCCZCXTKlCgy-20" edge="1">
          <mxGeometry relative="1" as="geometry">
            <mxPoint x="20" y="15" as="sourcePoint" />
            <mxPoint x="45.22467857142856" y="14.659999999999997" as="targetPoint" />
          </mxGeometry>
        </mxCell>
        <mxCell id="L41VFhDGmCCZCXTKlCgy-32" value="" style="group" parent="1" vertex="1" connectable="0">
          <mxGeometry x="618.1099999999999" y="80" width="124.06294117647053" height="30" as="geometry" />
        </mxCell>
        <mxCell id="L41VFhDGmCCZCXTKlCgy-14" value="" style="html=1;fillColor=#dae8fc;strokeColor=#6c8ebf;" parent="L41VFhDGmCCZCXTKlCgy-32" vertex="1">
          <mxGeometry y="7.5" width="27" height="15" as="geometry" />
        </mxCell>
        <mxCell id="L41VFhDGmCCZCXTKlCgy-15" value="Layer Segment" style="text;html=1;strokeColor=none;fillColor=none;align=left;verticalAlign=middle;whiteSpace=wrap;rounded=0;" parent="L41VFhDGmCCZCXTKlCgy-32" vertex="1">
          <mxGeometry x="38.76882352941175" width="85.29411764705883" height="30" as="geometry" />
        </mxCell>
        <mxCell id="L41VFhDGmCCZCXTKlCgy-33" value="" style="group" parent="1" vertex="1" connectable="0">
          <mxGeometry x="510" y="80" width="124.06294117647053" height="30" as="geometry" />
        </mxCell>
        <mxCell id="4sx6kofYm7ycBkXYHfvP-11" value="" style="html=1;" parent="L41VFhDGmCCZCXTKlCgy-33" vertex="1">
          <mxGeometry y="7.5" width="27" height="15" as="geometry" />
        </mxCell>
        <mxCell id="L41VFhDGmCCZCXTKlCgy-21" value="Layer" style="text;html=1;strokeColor=none;fillColor=none;align=left;verticalAlign=middle;whiteSpace=wrap;rounded=0;" parent="L41VFhDGmCCZCXTKlCgy-33" vertex="1">
          <mxGeometry x="38.76882352941175" width="85.29411764705883" height="30" as="geometry" />
        </mxCell>
        <mxCell id="L41VFhDGmCCZCXTKlCgy-34" value="" style="group" parent="1" vertex="1" connectable="0">
          <mxGeometry x="760.29" y="80" width="135.52999999999997" height="30" as="geometry" />
        </mxCell>
        <mxCell id="L41VFhDGmCCZCXTKlCgy-30" value="" style="shape=hexagon;perimeter=hexagonPerimeter2;whiteSpace=wrap;html=1;fixedSize=1;fillColor=#f5f5f5;fontColor=#333333;strokeColor=#666666;size=4.349999999999909;" parent="L41VFhDGmCCZCXTKlCgy-34" vertex="1">
          <mxGeometry y="6.5" width="29.35" height="17" as="geometry" />
        </mxCell>
        <mxCell id="L41VFhDGmCCZCXTKlCgy-31" value="External Clients" style="text;html=1;strokeColor=none;fillColor=none;align=left;verticalAlign=middle;whiteSpace=wrap;rounded=0;" parent="L41VFhDGmCCZCXTKlCgy-34" vertex="1">
          <mxGeometry x="39.95" width="70.05" height="30" as="geometry" />
        </mxCell>
        <mxCell id="poHSqKZHRjuxS-_Pqw1f-3" value="Middleware for Unified Execution of Quantum Applications&amp;nbsp;" style="rounded=0;whiteSpace=wrap;html=1;horizontal=1;verticalAlign=middle;fillColor=#dae8fc;strokeColor=#6c8ebf;" vertex="1" parent="1">
          <mxGeometry x="904" y="-128" width="156" height="89" as="geometry" />
        </mxCell>
      </root>
    </mxGraphModel>
  </diagram>
  <diagram name="Copy of Page-1" id="P5Ai192itOhQK4lvDXqu">
    <mxGraphModel dx="1205" dy="1878" grid="1" gridSize="10" guides="1" tooltips="1" connect="1" arrows="1" fold="1" page="1" pageScale="1" pageWidth="827" pageHeight="1169" math="0" shadow="0">
      <root>
        <mxCell id="y08kRS9JHIY-RtZNMPLM-0" />
        <mxCell id="y08kRS9JHIY-RtZNMPLM-1" parent="y08kRS9JHIY-RtZNMPLM-0" />
        <mxCell id="y08kRS9JHIY-RtZNMPLM-2" style="edgeStyle=orthogonalEdgeStyle;rounded=0;orthogonalLoop=1;jettySize=auto;html=1;startArrow=none;startFill=0;endArrow=classic;endFill=1;fontSize=14;" edge="1" parent="y08kRS9JHIY-RtZNMPLM-1" source="y08kRS9JHIY-RtZNMPLM-4" target="y08kRS9JHIY-RtZNMPLM-20">
          <mxGeometry relative="1" as="geometry" />
        </mxCell>
        <mxCell id="y08kRS9JHIY-RtZNMPLM-3" style="edgeStyle=orthogonalEdgeStyle;rounded=0;orthogonalLoop=1;jettySize=auto;html=1;startArrow=none;startFill=0;endArrow=classic;endFill=1;fontSize=14;" edge="1" parent="y08kRS9JHIY-RtZNMPLM-1" source="y08kRS9JHIY-RtZNMPLM-4" target="y08kRS9JHIY-RtZNMPLM-33">
          <mxGeometry relative="1" as="geometry">
            <Array as="points">
              <mxPoint x="360" y="110" />
              <mxPoint x="360" y="110" />
            </Array>
          </mxGeometry>
        </mxCell>
        <mxCell id="y08kRS9JHIY-RtZNMPLM-4" value="&lt;p style=&quot;margin: 6px 0px 0px; font-size: 14px;&quot;&gt;&lt;b style=&quot;font-size: 14px;&quot;&gt;RADON IDE&lt;/b&gt;&lt;/p&gt;" style="align=center;overflow=fill;html=1;rotation=0;fillColor=#d5e8d4;strokeColor=#82b366;horizontal=0;verticalAlign=middle;labelPosition=center;verticalLabelPosition=middle;fontSize=14;" vertex="1" parent="y08kRS9JHIY-RtZNMPLM-1">
          <mxGeometry x="440" y="-90" width="80" height="380" as="geometry" />
        </mxCell>
        <mxCell id="y08kRS9JHIY-RtZNMPLM-5" value="" style="shape=component;jettyWidth=8;jettyHeight=4;rotation=0;fontSize=14;" vertex="1" parent="y08kRS9JHIY-RtZNMPLM-4">
          <mxGeometry x="1" width="20" height="20" relative="1" as="geometry">
            <mxPoint x="-24" y="4" as="offset" />
          </mxGeometry>
        </mxCell>
        <mxCell id="y08kRS9JHIY-RtZNMPLM-6" style="edgeStyle=orthogonalEdgeStyle;rounded=0;orthogonalLoop=1;jettySize=auto;html=1;startArrow=classic;startFill=1;endArrow=none;endFill=0;fontSize=14;" edge="1" parent="y08kRS9JHIY-RtZNMPLM-1" source="y08kRS9JHIY-RtZNMPLM-7" target="y08kRS9JHIY-RtZNMPLM-4">
          <mxGeometry relative="1" as="geometry" />
        </mxCell>
        <mxCell id="y08kRS9JHIY-RtZNMPLM-7" value="&lt;p style=&quot;margin: 6px 0px 0px; text-align: center; font-size: 14px;&quot;&gt;&lt;b style=&quot;font-size: 14px;&quot;&gt;Constraint Definition&amp;nbsp;&lt;/b&gt;&lt;/p&gt;&lt;p style=&quot;margin: 6px 0px 0px; text-align: center; font-size: 14px;&quot;&gt;&lt;b style=&quot;font-size: 14px;&quot;&gt;Language tool&lt;/b&gt;&lt;/p&gt;" style="align=left;overflow=fill;html=1;fillColor=#d5e8d4;strokeColor=#82b366;fontSize=14;" vertex="1" parent="y08kRS9JHIY-RtZNMPLM-1">
          <mxGeometry x="600" y="-40" width="180" height="50" as="geometry" />
        </mxCell>
        <mxCell id="y08kRS9JHIY-RtZNMPLM-8" value="" style="shape=component;jettyWidth=8;jettyHeight=4;fontSize=14;" vertex="1" parent="y08kRS9JHIY-RtZNMPLM-7">
          <mxGeometry x="1" width="20" height="20" relative="1" as="geometry">
            <mxPoint x="-24" y="4" as="offset" />
          </mxGeometry>
        </mxCell>
        <mxCell id="y08kRS9JHIY-RtZNMPLM-9" value="" style="edgeStyle=orthogonalEdgeStyle;rounded=0;orthogonalLoop=1;jettySize=auto;html=1;startArrow=classic;startFill=1;fontSize=14;" edge="1" parent="y08kRS9JHIY-RtZNMPLM-1" source="y08kRS9JHIY-RtZNMPLM-11" target="y08kRS9JHIY-RtZNMPLM-7">
          <mxGeometry relative="1" as="geometry">
            <Array as="points">
              <mxPoint x="675" y="40" />
              <mxPoint x="675" y="40" />
            </Array>
          </mxGeometry>
        </mxCell>
        <mxCell id="y08kRS9JHIY-RtZNMPLM-10" style="edgeStyle=orthogonalEdgeStyle;rounded=0;orthogonalLoop=1;jettySize=auto;html=1;entryX=1;entryY=0.5;entryDx=0;entryDy=0;startArrow=classic;startFill=1;endArrow=none;endFill=0;fontSize=14;" edge="1" parent="y08kRS9JHIY-RtZNMPLM-1" source="y08kRS9JHIY-RtZNMPLM-11" target="y08kRS9JHIY-RtZNMPLM-4">
          <mxGeometry relative="1" as="geometry" />
        </mxCell>
        <mxCell id="y08kRS9JHIY-RtZNMPLM-11" value="&lt;p style=&quot;margin: 6px 0px 0px; text-align: center; font-size: 14px;&quot;&gt;&lt;b style=&quot;font-size: 14px;&quot;&gt;Graphical Modelling&lt;/b&gt;&lt;/p&gt;&lt;p style=&quot;margin: 6px 0px 0px; text-align: center; font-size: 14px;&quot;&gt;&lt;b style=&quot;font-size: 14px;&quot;&gt;Tool&lt;/b&gt;&lt;/p&gt;" style="align=left;overflow=fill;html=1;fillColor=#d5e8d4;strokeColor=#82b366;fontSize=14;" vertex="1" parent="y08kRS9JHIY-RtZNMPLM-1">
          <mxGeometry x="600" y="45" width="180" height="45" as="geometry" />
        </mxCell>
        <mxCell id="y08kRS9JHIY-RtZNMPLM-12" value="" style="shape=component;jettyWidth=8;jettyHeight=4;fontSize=14;" vertex="1" parent="y08kRS9JHIY-RtZNMPLM-11">
          <mxGeometry x="1" width="20" height="20" relative="1" as="geometry">
            <mxPoint x="-24" y="4" as="offset" />
          </mxGeometry>
        </mxCell>
        <mxCell id="y08kRS9JHIY-RtZNMPLM-13" value="" style="edgeStyle=orthogonalEdgeStyle;rounded=0;orthogonalLoop=1;jettySize=auto;html=1;startArrow=classic;startFill=1;endArrow=none;endFill=0;fontSize=14;" edge="1" parent="y08kRS9JHIY-RtZNMPLM-1" source="y08kRS9JHIY-RtZNMPLM-15" target="y08kRS9JHIY-RtZNMPLM-4">
          <mxGeometry relative="1" as="geometry" />
        </mxCell>
        <mxCell id="y08kRS9JHIY-RtZNMPLM-14" style="edgeStyle=orthogonalEdgeStyle;rounded=0;orthogonalLoop=1;jettySize=auto;html=1;startArrow=none;startFill=0;endArrow=classic;endFill=1;fontSize=14;" edge="1" parent="y08kRS9JHIY-RtZNMPLM-1" source="y08kRS9JHIY-RtZNMPLM-15" target="y08kRS9JHIY-RtZNMPLM-11">
          <mxGeometry relative="1" as="geometry">
            <Array as="points">
              <mxPoint x="810" y="133" />
              <mxPoint x="810" y="59" />
            </Array>
          </mxGeometry>
        </mxCell>
        <mxCell id="y08kRS9JHIY-RtZNMPLM-15" value="&lt;p style=&quot;margin: 6px 0px 0px; text-align: center; font-size: 14px;&quot;&gt;&lt;b style=&quot;font-size: 14px;&quot;&gt;Decomposition&amp;nbsp;&lt;/b&gt;&lt;/p&gt;&lt;p style=&quot;margin: 6px 0px 0px; text-align: center; font-size: 14px;&quot;&gt;&lt;b style=&quot;font-size: 14px;&quot;&gt;Tool&lt;/b&gt;&lt;/p&gt;" style="align=left;overflow=fill;html=1;fillColor=#d5e8d4;strokeColor=#82b366;fontSize=14;" vertex="1" parent="y08kRS9JHIY-RtZNMPLM-1">
          <mxGeometry x="600" y="110" width="180" height="45" as="geometry" />
        </mxCell>
        <mxCell id="y08kRS9JHIY-RtZNMPLM-16" value="" style="shape=component;jettyWidth=8;jettyHeight=4;fontSize=14;" vertex="1" parent="y08kRS9JHIY-RtZNMPLM-15">
          <mxGeometry x="1" width="20" height="20" relative="1" as="geometry">
            <mxPoint x="-24" y="4" as="offset" />
          </mxGeometry>
        </mxCell>
        <mxCell id="y08kRS9JHIY-RtZNMPLM-17" style="edgeStyle=orthogonalEdgeStyle;rounded=0;orthogonalLoop=1;jettySize=auto;html=1;endArrow=none;endFill=0;startArrow=classic;startFill=1;fontSize=14;" edge="1" parent="y08kRS9JHIY-RtZNMPLM-1" source="y08kRS9JHIY-RtZNMPLM-18" target="y08kRS9JHIY-RtZNMPLM-4">
          <mxGeometry relative="1" as="geometry" />
        </mxCell>
        <mxCell id="y08kRS9JHIY-RtZNMPLM-18" value="&lt;p style=&quot;margin: 6px 0px 0px; text-align: center; font-size: 14px;&quot;&gt;&lt;b style=&quot;font-size: 14px;&quot;&gt;Defect Prediction Tool&lt;/b&gt;&lt;/p&gt;" style="align=left;overflow=fill;html=1;fillColor=#d5e8d4;strokeColor=#82b366;fontSize=14;" vertex="1" parent="y08kRS9JHIY-RtZNMPLM-1">
          <mxGeometry x="600" y="170" width="180" height="50" as="geometry" />
        </mxCell>
        <mxCell id="y08kRS9JHIY-RtZNMPLM-19" value="" style="shape=component;jettyWidth=8;jettyHeight=4;fontSize=14;" vertex="1" parent="y08kRS9JHIY-RtZNMPLM-18">
          <mxGeometry x="1" width="20" height="20" relative="1" as="geometry">
            <mxPoint x="-24" y="4" as="offset" />
          </mxGeometry>
        </mxCell>
        <mxCell id="y08kRS9JHIY-RtZNMPLM-20" value="&lt;p style=&quot;margin: 6px 0px 0px; text-align: center; font-size: 14px;&quot;&gt;&lt;b style=&quot;font-size: 14px;&quot;&gt;Verification Tool&lt;/b&gt;&lt;/p&gt;" style="align=left;overflow=fill;html=1;fillColor=#d5e8d4;strokeColor=#82b366;fontSize=14;" vertex="1" parent="y08kRS9JHIY-RtZNMPLM-1">
          <mxGeometry x="600" y="240" width="180" height="40" as="geometry" />
        </mxCell>
        <mxCell id="y08kRS9JHIY-RtZNMPLM-21" value="" style="shape=component;jettyWidth=8;jettyHeight=4;fontSize=14;" vertex="1" parent="y08kRS9JHIY-RtZNMPLM-20">
          <mxGeometry x="1" width="20" height="20" relative="1" as="geometry">
            <mxPoint x="-24" y="4" as="offset" />
          </mxGeometry>
        </mxCell>
        <mxCell id="y08kRS9JHIY-RtZNMPLM-22" style="edgeStyle=orthogonalEdgeStyle;rounded=0;orthogonalLoop=1;jettySize=auto;html=1;entryX=1;entryY=0.5;entryDx=0;entryDy=0;startArrow=classic;startFill=1;endArrow=none;endFill=0;fontSize=14;" edge="1" parent="y08kRS9JHIY-RtZNMPLM-1" source="y08kRS9JHIY-RtZNMPLM-23" target="y08kRS9JHIY-RtZNMPLM-4">
          <mxGeometry relative="1" as="geometry" />
        </mxCell>
        <mxCell id="y08kRS9JHIY-RtZNMPLM-23" value="&lt;p style=&quot;margin: 6px 0px 0px; text-align: center; font-size: 14px;&quot;&gt;&lt;b style=&quot;font-size: 14px;&quot;&gt;Continuous Testing&amp;nbsp;&lt;/b&gt;&lt;/p&gt;&lt;p style=&quot;margin: 6px 0px 0px; text-align: center; font-size: 14px;&quot;&gt;&lt;b style=&quot;font-size: 14px;&quot;&gt;Tool&lt;/b&gt;&lt;/p&gt;" style="align=left;overflow=fill;html=1;fillColor=#d5e8d4;strokeColor=#82b366;fontSize=14;" vertex="1" parent="y08kRS9JHIY-RtZNMPLM-1">
          <mxGeometry x="600" y="300" width="180" height="40" as="geometry" />
        </mxCell>
        <mxCell id="y08kRS9JHIY-RtZNMPLM-24" value="" style="shape=component;jettyWidth=8;jettyHeight=4;fontSize=14;" vertex="1" parent="y08kRS9JHIY-RtZNMPLM-23">
          <mxGeometry x="1" width="20" height="20" relative="1" as="geometry">
            <mxPoint x="-24" y="4" as="offset" />
          </mxGeometry>
        </mxCell>
        <mxCell id="y08kRS9JHIY-RtZNMPLM-25" value="" style="group;fontSize=14;" vertex="1" connectable="0" parent="y08kRS9JHIY-RtZNMPLM-1">
          <mxGeometry x="524" y="-240" width="322" height="100" as="geometry" />
        </mxCell>
        <mxCell id="y08kRS9JHIY-RtZNMPLM-26" value="Note" style="shape=note;whiteSpace=wrap;html=1;size=14;verticalAlign=top;align=left;spacingTop=-6;fontSize=14;" vertex="1" parent="y08kRS9JHIY-RtZNMPLM-25">
          <mxGeometry width="322" height="100" as="geometry" />
        </mxCell>
        <mxCell id="y08kRS9JHIY-RtZNMPLM-27" value="" style="html=1;fillColor=#d5e8d4;strokeColor=#82b366;fontSize=14;" vertex="1" parent="y08kRS9JHIY-RtZNMPLM-25">
          <mxGeometry x="29" y="20" width="20" height="20" as="geometry" />
        </mxCell>
        <mxCell id="y08kRS9JHIY-RtZNMPLM-28" value="Design/Development time components" style="text;align=center;fontStyle=0;verticalAlign=middle;spacingLeft=3;spacingRight=3;strokeColor=none;rotatable=0;points=[[0,0.5],[1,0.5]];portConstraint=eastwest;fontSize=14;" vertex="1" parent="y08kRS9JHIY-RtZNMPLM-25">
          <mxGeometry x="142" y="14" width="80" height="26" as="geometry" />
        </mxCell>
        <mxCell id="y08kRS9JHIY-RtZNMPLM-29" value="" style="html=1;fillColor=#dae8fc;strokeColor=#6c8ebf;fontSize=14;" vertex="1" parent="y08kRS9JHIY-RtZNMPLM-25">
          <mxGeometry x="29" y="60" width="20" height="20" as="geometry" />
        </mxCell>
        <mxCell id="y08kRS9JHIY-RtZNMPLM-30" value="Runtime components" style="text;align=center;fontStyle=0;verticalAlign=middle;spacingLeft=3;spacingRight=3;strokeColor=none;rotatable=0;points=[[0,0.5],[1,0.5]];portConstraint=eastwest;fontSize=14;" vertex="1" parent="y08kRS9JHIY-RtZNMPLM-25">
          <mxGeometry x="102" y="60" width="80" height="26" as="geometry" />
        </mxCell>
        <mxCell id="y08kRS9JHIY-RtZNMPLM-31" style="edgeStyle=orthogonalEdgeStyle;rounded=0;orthogonalLoop=1;jettySize=auto;html=1;exitX=0.5;exitY=1;exitDx=0;exitDy=0;entryX=0.5;entryY=0;entryDx=0;entryDy=0;fontSize=14;" edge="1" parent="y08kRS9JHIY-RtZNMPLM-1" source="y08kRS9JHIY-RtZNMPLM-4" target="y08kRS9JHIY-RtZNMPLM-49">
          <mxGeometry relative="1" as="geometry">
            <mxPoint x="480" y="320" as="targetPoint" />
            <mxPoint x="480" y="300" as="sourcePoint" />
          </mxGeometry>
        </mxCell>
        <mxCell id="y08kRS9JHIY-RtZNMPLM-32" value="" style="group;fontSize=14;" vertex="1" connectable="0" parent="y08kRS9JHIY-RtZNMPLM-1">
          <mxGeometry x="50" y="-86" width="270" height="336" as="geometry" />
        </mxCell>
        <mxCell id="y08kRS9JHIY-RtZNMPLM-33" value="&lt;p style=&quot;margin: 6px 0px 0px; text-align: center; font-size: 14px;&quot;&gt;&lt;b style=&quot;font-size: 14px;&quot;&gt;Delivery Toolchain&lt;/b&gt;&lt;/p&gt;" style="align=left;overflow=fill;html=1;fillColor=#dae8fc;strokeColor=#6c8ebf;fontSize=14;" vertex="1" parent="y08kRS9JHIY-RtZNMPLM-32">
          <mxGeometry width="270" height="336" as="geometry" />
        </mxCell>
        <mxCell id="y08kRS9JHIY-RtZNMPLM-34" value="" style="shape=component;jettyWidth=8;jettyHeight=4;fontSize=14;" vertex="1" parent="y08kRS9JHIY-RtZNMPLM-33">
          <mxGeometry x="1" width="20" height="20" relative="1" as="geometry">
            <mxPoint x="-24" y="4" as="offset" />
          </mxGeometry>
        </mxCell>
        <mxCell id="y08kRS9JHIY-RtZNMPLM-35" value="&lt;p style=&quot;margin: 6px 0px 0px; text-align: center; font-size: 14px;&quot;&gt;&lt;b style=&quot;font-size: 14px;&quot;&gt;Orchestrator&lt;/b&gt;&lt;/p&gt;" style="align=left;overflow=fill;html=1;fontSize=14;" vertex="1" parent="y08kRS9JHIY-RtZNMPLM-33">
          <mxGeometry x="29" y="55.878787878787875" width="190" height="100.12121212121212" as="geometry" />
        </mxCell>
        <mxCell id="y08kRS9JHIY-RtZNMPLM-36" value="" style="shape=component;jettyWidth=8;jettyHeight=4;fontSize=14;" vertex="1" parent="y08kRS9JHIY-RtZNMPLM-35">
          <mxGeometry x="1" width="20" height="20" relative="1" as="geometry">
            <mxPoint x="-24" y="4" as="offset" />
          </mxGeometry>
        </mxCell>
        <mxCell id="y08kRS9JHIY-RtZNMPLM-37" value="&lt;p style=&quot;margin: 6px 0px 0px; text-align: center; font-size: 14px;&quot;&gt;&lt;b style=&quot;font-size: 14px;&quot;&gt;Data Pipeline&amp;nbsp;&lt;/b&gt;&lt;/p&gt;&lt;p style=&quot;margin: 6px 0px 0px; text-align: center; font-size: 14px;&quot;&gt;&lt;b style=&quot;font-size: 14px;&quot;&gt;Plugins&lt;/b&gt;&lt;/p&gt;" style="align=left;overflow=fill;html=1;fontSize=14;" vertex="1" parent="y08kRS9JHIY-RtZNMPLM-35">
          <mxGeometry x="34" y="34" width="126" height="46" as="geometry" />
        </mxCell>
        <mxCell id="y08kRS9JHIY-RtZNMPLM-38" value="" style="shape=component;jettyWidth=8;jettyHeight=4;fontSize=14;" vertex="1" parent="y08kRS9JHIY-RtZNMPLM-37">
          <mxGeometry x="1" width="20" height="20" relative="1" as="geometry">
            <mxPoint x="-24" y="4" as="offset" />
          </mxGeometry>
        </mxCell>
        <mxCell id="y08kRS9JHIY-RtZNMPLM-39" value="&lt;p style=&quot;margin: 6px 0px 0px; text-align: center; font-size: 14px;&quot;&gt;&lt;b style=&quot;font-size: 14px;&quot;&gt;Continuous integration/&lt;/b&gt;&lt;/p&gt;&lt;p style=&quot;margin: 6px 0px 0px; text-align: center; font-size: 14px;&quot;&gt;&lt;b style=&quot;font-size: 14px;&quot;&gt;&amp;nbsp;Continuous delivery&lt;/b&gt;&lt;br style=&quot;font-size: 14px;&quot;&gt;&lt;/p&gt;" style="align=left;overflow=fill;html=1;fontSize=14;" vertex="1" parent="y08kRS9JHIY-RtZNMPLM-33">
          <mxGeometry x="30" y="174" width="190" height="46" as="geometry" />
        </mxCell>
        <mxCell id="y08kRS9JHIY-RtZNMPLM-40" value="" style="shape=component;jettyWidth=8;jettyHeight=4;fontSize=14;" vertex="1" parent="y08kRS9JHIY-RtZNMPLM-39">
          <mxGeometry x="1" width="20" height="20" relative="1" as="geometry">
            <mxPoint x="-24" y="4" as="offset" />
          </mxGeometry>
        </mxCell>
        <mxCell id="y08kRS9JHIY-RtZNMPLM-41" value="&lt;p style=&quot;margin: 6px 0px 0px; text-align: center; font-size: 14px;&quot;&gt;&lt;b style=&quot;font-size: 14px;&quot;&gt;Function Hub&lt;/b&gt;&lt;/p&gt;" style="align=left;overflow=fill;html=1;fontSize=14;" vertex="1" parent="y08kRS9JHIY-RtZNMPLM-33">
          <mxGeometry x="28.5" y="238.11605415860734" width="189" height="25.02127659574468" as="geometry" />
        </mxCell>
        <mxCell id="y08kRS9JHIY-RtZNMPLM-42" value="" style="shape=component;jettyWidth=8;jettyHeight=4;fontSize=14;" vertex="1" parent="y08kRS9JHIY-RtZNMPLM-41">
          <mxGeometry x="1" width="20" height="20" relative="1" as="geometry">
            <mxPoint x="-24" y="4" as="offset" />
          </mxGeometry>
        </mxCell>
        <mxCell id="y08kRS9JHIY-RtZNMPLM-43" value="&lt;p style=&quot;margin: 6px 0px 0px; text-align: center; font-size: 14px;&quot;&gt;&lt;b style=&quot;font-size: 14px;&quot;&gt;Monitoring System&lt;/b&gt;&lt;/p&gt;" style="align=left;overflow=fill;html=1;fillColor=#FFFFFF;strokeColor=#000000;fontSize=14;" vertex="1" parent="y08kRS9JHIY-RtZNMPLM-33">
          <mxGeometry x="28.5" y="285.18297872340423" width="189" height="27.880851063829788" as="geometry" />
        </mxCell>
        <mxCell id="y08kRS9JHIY-RtZNMPLM-44" value="" style="shape=component;jettyWidth=8;jettyHeight=4;fontSize=14;" vertex="1" parent="y08kRS9JHIY-RtZNMPLM-43">
          <mxGeometry x="1" width="20" height="20" relative="1" as="geometry">
            <mxPoint x="-24" y="4" as="offset" />
          </mxGeometry>
        </mxCell>
        <mxCell id="y08kRS9JHIY-RtZNMPLM-45" style="edgeStyle=orthogonalEdgeStyle;rounded=0;orthogonalLoop=1;jettySize=auto;html=1;startArrow=none;startFill=0;endArrow=classic;endFill=1;fontSize=14;" edge="1" parent="y08kRS9JHIY-RtZNMPLM-1" target="y08kRS9JHIY-RtZNMPLM-43">
          <mxGeometry relative="1" as="geometry">
            <mxPoint x="187" y="227.063829787234" as="targetPoint" />
            <Array as="points">
              <mxPoint x="690" y="340" />
              <mxPoint x="690" y="460" />
              <mxPoint x="180" y="460" />
            </Array>
            <mxPoint x="659" y="340" as="sourcePoint" />
          </mxGeometry>
        </mxCell>
        <mxCell id="y08kRS9JHIY-RtZNMPLM-46" style="edgeStyle=orthogonalEdgeStyle;rounded=0;orthogonalLoop=1;jettySize=auto;html=1;fontSize=14;" edge="1" parent="y08kRS9JHIY-RtZNMPLM-1" source="y08kRS9JHIY-RtZNMPLM-15" target="y08kRS9JHIY-RtZNMPLM-43">
          <mxGeometry relative="1" as="geometry">
            <Array as="points">
              <mxPoint x="810" y="133" />
              <mxPoint x="810" y="460" />
              <mxPoint x="180" y="460" />
            </Array>
          </mxGeometry>
        </mxCell>
        <mxCell id="y08kRS9JHIY-RtZNMPLM-47" value="" style="group;fontSize=14;" vertex="1" connectable="0" parent="y08kRS9JHIY-RtZNMPLM-1">
          <mxGeometry x="380" y="340" width="200" height="100" as="geometry" />
        </mxCell>
        <mxCell id="y08kRS9JHIY-RtZNMPLM-48" value="" style="group;fillColor=#DAE8FC;strokeColor=#82B366;fontSize=14;" vertex="1" connectable="0" parent="y08kRS9JHIY-RtZNMPLM-47">
          <mxGeometry width="200" height="100" as="geometry" />
        </mxCell>
        <mxCell id="y08kRS9JHIY-RtZNMPLM-49" value="&lt;p style=&quot;margin: 6px 0px 0px; text-align: center; font-size: 14px;&quot;&gt;&lt;b style=&quot;font-size: 14px;&quot;&gt;Template Library&lt;/b&gt;&lt;/p&gt;" style="align=left;overflow=fill;html=1;fillColor=#DAE8FC;strokeColor=#6C8EBF;fontSize=14;" vertex="1" parent="y08kRS9JHIY-RtZNMPLM-47">
          <mxGeometry width="200" height="100" as="geometry" />
        </mxCell>
        <mxCell id="y08kRS9JHIY-RtZNMPLM-50" value="" style="shape=component;jettyWidth=8;jettyHeight=4;fontSize=14;" vertex="1" parent="y08kRS9JHIY-RtZNMPLM-49">
          <mxGeometry x="1" width="20" height="20" relative="1" as="geometry">
            <mxPoint x="-24" y="4" as="offset" />
          </mxGeometry>
        </mxCell>
        <mxCell id="y08kRS9JHIY-RtZNMPLM-51" value="&lt;p style=&quot;margin: 6px 0px 0px; text-align: center; font-size: 14px;&quot;&gt;&lt;b style=&quot;font-size: 14px;&quot;&gt;FaaS abstraction&amp;nbsp;&lt;/b&gt;&lt;/p&gt;&lt;p style=&quot;margin: 6px 0px 0px; text-align: center; font-size: 14px;&quot;&gt;&lt;b style=&quot;font-size: 14px;&quot;&gt;layer&lt;/b&gt;&lt;/p&gt;" style="align=left;overflow=fill;html=1;fontSize=14;" vertex="1" parent="y08kRS9JHIY-RtZNMPLM-49">
          <mxGeometry x="21.052631578947366" y="37.77777777777778" width="167.36842105263156" height="51.111111111111114" as="geometry" />
        </mxCell>
        <mxCell id="y08kRS9JHIY-RtZNMPLM-52" value="" style="shape=component;jettyWidth=8;jettyHeight=4;fontSize=14;" vertex="1" parent="y08kRS9JHIY-RtZNMPLM-51">
          <mxGeometry x="1" width="20" height="20" relative="1" as="geometry">
            <mxPoint x="-24" y="4" as="offset" />
          </mxGeometry>
        </mxCell>
      </root>
    </mxGraphModel>
  </diagram>
</mxfile>
